<svg width="456" height="512" viewBox="0 0 456 512" fill="none" xmlns="http://www.w3.org/2000/svg">
<g filter="url(#filter0_d_113_10)">
<path d="M104.3 448H11.4V148.9H104.3V448ZM57.8 108.1C28.1 108.1 4 83.5 4 53.8C4 39.5314 9.6682 25.8471 19.7577 15.7577C29.8471 5.6682 43.5314 0 57.8 0C72.0686 0 85.7529 5.6682 95.8423 15.7577C105.932 25.8471 111.6 39.5314 111.6 53.8C111.6 83.5 87.5 108.1 57.8 108.1ZM451.9 448H359.2V302.4C359.2 267.7 358.5 223.2 310.9 223.2C262.6 223.2 255.2 260.9 255.2 299.9V448H162.4V148.9H251.5V189.7H252.8C265.2 166.2 295.5 141.4 340.7 141.4C434.7 141.4 452 203.3 452 283.7V448H451.9Z" fill="white"/>
</g>
<defs>
<filter id="filter0_d_113_10" x="0" y="0" width="456" height="520" filterUnits="userSpaceOnUse" color-interpolation-filters="sRGB">
<feFlood flood-opacity="0" result="BackgroundImageFix"/>
<feColorMatrix in="SourceAlpha" type="matrix" values="0 0 0 0 0 0 0 0 0 0 0 0 0 0 0 0 0 0 127 0" result="hardAlpha"/>
<feOffset dy="4"/>
<feGaussianBlur stdDeviation="2"/>
<feComposite in2="hardAlpha" operator="out"/>
<feColorMatrix type="matrix" values="0 0 0 0 0 0 0 0 0 0 0 0 0 0 0 0 0 0 0.25 0"/>
<feBlend mode="normal" in2="BackgroundImageFix" result="effect1_dropShadow_113_10"/>
<feBlend mode="normal" in="SourceGraphic" in2="effect1_dropShadow_113_10" result="shape"/>
</filter>
</defs>
</svg>
