<svg width="534" height="86" viewBox="0 0 534 86" fill="none" xmlns="http://www.w3.org/2000/svg">
<path d="M157.22 26.432L149.768 59H137.072L133.3 40.508L129.528 59H116.832L109.38 26.432H120.374L123.318 46.948L127.734 26.432H138.866L143.282 46.948L146.226 26.432H157.22ZM171.094 34.574V38.576H181.214V46.258H171.094V50.858H182.594V59H160.882V26.432H182.594V34.574H171.094ZM199.185 59.322C195.29 59.322 192.07 58.4173 189.525 56.608C187.01 54.768 185.645 52.0847 185.431 48.558H196.287C196.44 50.4287 197.268 51.364 198.771 51.364C199.323 51.364 199.783 51.2413 200.151 50.996C200.549 50.72 200.749 50.306 200.749 49.754C200.749 48.9873 200.335 48.374 199.507 47.914C198.679 47.4233 197.391 46.8713 195.643 46.258C193.557 45.522 191.825 44.8013 190.445 44.096C189.095 43.3907 187.93 42.3633 186.949 41.014C185.967 39.6647 185.492 37.932 185.523 35.816C185.523 33.7 186.059 31.906 187.133 30.434C188.237 28.9313 189.724 27.7967 191.595 27.03C193.496 26.2633 195.627 25.88 197.989 25.88C201.975 25.88 205.134 26.8 207.465 28.64C209.826 30.48 211.068 33.0713 211.191 36.414H200.197C200.166 35.494 199.936 34.8347 199.507 34.436C199.077 34.0373 198.556 33.838 197.943 33.838C197.513 33.838 197.161 33.9913 196.885 34.298C196.609 34.574 196.471 34.9727 196.471 35.494C196.471 36.23 196.869 36.8433 197.667 37.334C198.495 37.794 199.798 38.3613 201.577 39.036C203.631 39.8027 205.318 40.5387 206.637 41.244C207.986 41.9493 209.151 42.9307 210.133 44.188C211.114 45.4453 211.605 47.0247 211.605 48.926C211.605 50.9193 211.114 52.7133 210.133 54.308C209.151 55.872 207.725 57.0987 205.855 57.988C203.984 58.8773 201.761 59.322 199.185 59.322ZM240.769 26.432V34.528H232.121V59H221.909V34.528H213.353V26.432H240.769ZM253.75 34.574V38.576H263.87V46.258H253.75V50.858H265.25V59H243.538V26.432H265.25V34.574H253.75ZM285.475 59L279.357 47.316H279.311V59H269.099V26.432H284.279C286.916 26.432 289.17 26.9073 291.041 27.858C292.911 28.778 294.307 30.0507 295.227 31.676C296.177 33.2707 296.653 35.08 296.653 37.104C296.653 39.2813 296.039 41.2133 294.813 42.9C293.617 44.5867 291.884 45.798 289.615 46.534L296.699 59H285.475ZM279.311 40.508H283.359C284.34 40.508 285.076 40.2933 285.567 39.864C286.057 39.404 286.303 38.6987 286.303 37.748C286.303 36.8893 286.042 36.2147 285.521 35.724C285.03 35.2333 284.309 34.988 283.359 34.988H279.311V40.508ZM331.149 59H320.937L310.127 42.624V59H299.915V26.432H310.127L320.937 43.084V26.432H331.149V59ZM365.383 42.302C367.346 42.762 368.864 43.7127 369.937 45.154C371.041 46.5647 371.593 48.2053 371.593 50.076C371.593 52.928 370.643 55.136 368.741 56.7C366.871 58.2333 364.172 59 360.645 59H343.579V26.432H360.185C363.497 26.432 366.104 27.1527 368.005 28.594C369.907 30.0353 370.857 32.136 370.857 34.896C370.857 36.7973 370.351 38.4073 369.339 39.726C368.358 41.014 367.039 41.8727 365.383 42.302ZM353.791 39.128H357.747C358.667 39.128 359.342 38.944 359.771 38.576C360.231 38.208 360.461 37.6407 360.461 36.874C360.461 36.0767 360.231 35.494 359.771 35.126C359.342 34.7273 358.667 34.528 357.747 34.528H353.791V39.128ZM358.437 50.812C359.357 50.812 360.032 50.6433 360.461 50.306C360.921 49.938 361.151 49.3553 361.151 48.558C361.151 46.994 360.247 46.212 358.437 46.212H353.791V50.812H358.437ZM385.007 26.432V44.786C385.007 46.2887 385.329 47.4847 385.973 48.374C386.647 49.2327 387.721 49.662 389.193 49.662C390.665 49.662 391.753 49.2327 392.459 48.374C393.164 47.4847 393.517 46.2887 393.517 44.786V26.432H403.683V44.786C403.683 47.8833 403.039 50.536 401.751 52.744C400.463 54.9213 398.699 56.562 396.461 57.666C394.222 58.77 391.723 59.322 388.963 59.322C386.203 59.322 383.749 58.77 381.603 57.666C379.487 56.562 377.831 54.9213 376.635 52.744C375.439 50.5667 374.841 47.914 374.841 44.786V26.432H385.007ZM418.299 26.432V59H408.087V26.432H418.299ZM433.123 51.272H442.967V59H422.911V26.432H433.123V51.272ZM459.751 26.432C463.155 26.432 466.13 27.122 468.675 28.502C471.251 29.882 473.229 31.7987 474.609 34.252C475.989 36.7053 476.679 39.496 476.679 42.624C476.679 45.7213 475.989 48.512 474.609 50.996C473.229 53.48 471.251 55.4427 468.675 56.884C466.13 58.2947 463.155 59 459.751 59H446.181V26.432H459.751ZM458.831 49.892C461.131 49.892 462.956 49.2633 464.305 48.006C465.654 46.7487 466.329 44.9547 466.329 42.624C466.329 40.2933 465.654 38.4993 464.305 37.242C462.956 35.9847 461.131 35.356 458.831 35.356H456.393V49.892H458.831ZM493.108 59.322C489.214 59.322 485.994 58.4173 483.448 56.608C480.934 54.768 479.569 52.0847 479.354 48.558H490.21C490.364 50.4287 491.192 51.364 492.694 51.364C493.246 51.364 493.706 51.2413 494.074 50.996C494.473 50.72 494.672 50.306 494.672 49.754C494.672 48.9873 494.258 48.374 493.43 47.914C492.602 47.4233 491.314 46.8713 489.566 46.258C487.481 45.522 485.748 44.8013 484.368 44.096C483.019 43.3907 481.854 42.3633 480.872 41.014C479.891 39.6647 479.416 37.932 479.446 35.816C479.446 33.7 479.983 31.906 481.056 30.434C482.16 28.9313 483.648 27.7967 485.518 27.03C487.42 26.2633 489.551 25.88 491.912 25.88C495.899 25.88 499.058 26.8 501.388 28.64C503.75 30.48 504.992 33.0713 505.114 36.414H494.12C494.09 35.494 493.86 34.8347 493.43 34.436C493.001 34.0373 492.48 33.838 491.866 33.838C491.437 33.838 491.084 33.9913 490.808 34.298C490.532 34.574 490.394 34.9727 490.394 35.494C490.394 36.23 490.793 36.8433 491.59 37.334C492.418 37.794 493.722 38.3613 495.5 39.036C497.555 39.8027 499.242 40.5387 500.56 41.244C501.91 41.9493 503.075 42.9307 504.056 44.188C505.038 45.4453 505.528 47.0247 505.528 48.926C505.528 50.9193 505.038 52.7133 504.056 54.308C503.075 55.872 501.649 57.0987 499.778 57.988C497.908 58.8773 495.684 59.322 493.108 59.322Z" fill="white"/>
<path fill-rule="evenodd" clip-rule="evenodd" d="M65.1253 71.0992H67.1411L79.521 17.5674H61.2562L56.3659 51.2893L49.0295 17.5674H34.4664L24.4047 0H73.1245L97.3169 42.7652L73.2778 85.3335L65.1253 71.0992Z" fill="white"/>
<mask id="mask0_2_19" style="mask-type:luminance" maskUnits="userSpaceOnUse" x="0" y="17" width="80" height="55">
<path d="M79.5222 17.5686L67.142 71.1007H46.0501L39.7836 40.7056L33.5182 71.1007H12.4263L0.04615 17.5686H18.3109L23.2014 51.2911L30.5372 17.5686H49.0311L56.3669 51.2911L61.2574 17.5686H79.5222Z" fill="white"/>
</mask>
<g mask="url(#mask0_2_19)">
<path fill-rule="evenodd" clip-rule="evenodd" d="M71.2488 89.0046L14.7941 -9.56704L-11.2193 32.0521L18.115 89.0046H71.2488Z" fill="white"/>
</g>
</svg>
