<?xml version="1.0" encoding="UTF-8" standalone="no"?>
<!DOCTYPE svg PUBLIC "-//W3C//DTD SVG 1.1//EN" "http://www.w3.org/Graphics/SVG/1.1/DTD/svg11.dtd">
<svg width="100%" height="100%" viewBox="0 0 237 50" version="1.1" xmlns="http://www.w3.org/2000/svg" xmlns:xlink="http://www.w3.org/1999/xlink" xml:space="preserve" xmlns:serif="http://www.serif.com/" style="fill-rule:evenodd;clip-rule:evenodd;stroke-linejoin:round;stroke-miterlimit:2;">
    <g transform="matrix(1,0,0,1,-82.0189,-342)">
        <g transform="matrix(0.266964,0,0,0.266964,70.2633,285.678)">
            <g transform="matrix(75.2899,0,0,75.2899,930.53,324.31)">
            </g>
            <text x="277.692px" y="324.31px" style="font-family:'Poppins-Black', 'Poppins';font-weight:900;font-size:75.29px;">WESTERN BUILDS</text>
        </g>
        <g transform="matrix(0.583869,0,0,0.583869,-114.631,257.031)">
            <g transform="matrix(1,0,0,1,-2,-0.5)">
                <path d="M402.968,216.826L404.954,216.826L417.151,163.521L399.156,163.521L394.338,197.1L387.11,163.521L372.762,163.521L362.849,146.028L410.849,146.028L434.684,188.612L411,231L402.968,216.826Z"/>
            </g>
            <g transform="matrix(-1.0906,0,0,-1.0906,799.617,387.93)">
                <clipPath id="_clip1">
                    <path d="M352.526,206.224L363.71,157.347L382.764,157.347L388.425,185.099L394.085,157.347L413.139,157.347L424.323,206.224L407.823,206.224L403.405,175.434L396.778,206.224L380.071,206.224L373.444,175.434L369.026,206.224L352.526,206.224Z" clip-rule="nonzero"/>
                </clipPath>
                <g clip-path="url(#_clip1)">
                    <path d="M360,141L411,231L434.5,193L408,141L360,141Z"/>
                </g>
            </g>
        </g>
    </g>
</svg>
